<?xml version="1.0" encoding="utf-8"?>
<!-- Generator: Adobe Illustrator 21.0.2, SVG Export Plug-In . SVG Version: 6.00 Build 0)  -->
<svg version="1.1" id="Calque_1" xmlns="http://www.w3.org/2000/svg" xmlns:xlink="http://www.w3.org/1999/xlink" x="0px" y="0px"
	 viewBox="0 0 24 24" style="enable-background:new 0 0 24 24;" xml:space="preserve">
<style type="text/css">
	.st0{fill:#FFFFFF;}
</style>
<g id="manette_1">
	<path class="st0" d="M21,15.6L21,15.6c0-0.3-0.1-0.5-0.2-0.7l-1.3-4.9C19.2,7.7,17.3,6,15,6l-1,1h-4L9,6C6.7,6,4.8,7.7,4.5,9.9
		l-1.3,4.9C3.1,15,3,15.3,3,15.5l0,0h0c0,0.1,0,0.1,0,0.2C3,17,4,18,5.2,18c0.6,0,1.3-0.3,1.7-0.8h0L9.8,15h4.5l2.8,2.3h0
		c0.8,0.9,2.2,1,3.2,0.2c0.5-0.4,0.8-1,0.8-1.7C21,15.7,21,15.6,21,15.6L21,15.6z M8,13c-1.1,0-2-0.9-2-2c0-1.1,0.9-2,2-2
		c1.1,0,2,0.9,2,2C10,12.1,9.1,13,8,13C8,13,8,13,8,13z M8,10c-0.6,0-1,0.4-1,1s0.4,1,1,1s1-0.4,1-1S8.6,10,8,10z M16,13
		c-1.1,0-2-0.9-2-2c0-1.1,0.9-2,2-2c1.1,0,2,0.9,2,2C18,12.1,17.1,13,16,13C16,13,16,13,16,13L16,13z M16,10c-0.6,0-1,0.4-1,1
		s0.4,1,1,1s1-0.4,1-1S16.6,10,16,10z M12,10c0.6,0,1,0.4,1,1s-0.4,1-1,1s-1-0.4-1-1S11.4,10,12,10z"/>
</g>
</svg>
