<?xml version="1.0" encoding="utf-8"?>
<!-- Generator: Adobe Illustrator 21.0.2, SVG Export Plug-In . SVG Version: 6.00 Build 0)  -->
<svg version="1.1" id="Calque_1" xmlns="http://www.w3.org/2000/svg" xmlns:xlink="http://www.w3.org/1999/xlink" x="0px" y="0px"
	 viewBox="0 0 24 24" style="enable-background:new 0 0 24 24;" xml:space="preserve">
<style type="text/css">
	.st0{fill:#FFFFFF;}
</style>
<g id="PC">
	<g>
		<path class="st0" d="M13,3.1v2.2c0.6,0.3,1,1,1,1.7v4c0,1.1-0.9,2-2,2c-1.1,0-2-0.9-2-2V7c0-0.7,0.4-1.4,1-1.7V3.1
			C8.2,3.6,6,6,6,9v6c0,3.3,2.7,6,6,6s6-2.7,6-6V9C18,6,15.8,3.6,13,3.1z"/>
		<rect x="11" y="7" class="st0" width="2" height="4"/>
	</g>
</g>
</svg>
